<svg class="main-svg" xmlns="http://www.w3.org/2000/svg" xmlns:xlink="http://www.w3.org/1999/xlink" width="700" height="450" style="" viewBox="0 0 700 450"><rect x="0" y="0" width="700" height="450" style="fill: rgb(255, 255, 255); fill-opacity: 1;"/><defs id="defs-77c2b8"><g class="clips"><clipPath id="clip77c2b8xyplot" class="plotclip"><rect width="580" height="330"/></clipPath><clipPath class="axesclip" id="clip77c2b8x"><rect x="60" y="0" width="580" height="450"/></clipPath><clipPath class="axesclip" id="clip77c2b8y"><rect x="0" y="60" width="700" height="330"/></clipPath><clipPath class="axesclip" id="clip77c2b8xy"><rect x="60" y="60" width="580" height="330"/></clipPath></g><g class="gradients"/></defs><g class="bglayer"/><g class="layer-below"><g class="imagelayer"/><g class="shapelayer"/></g><g class="cartesianlayer"><g class="subplot xy"><g class="layer-subplot"><g class="shapelayer"/><g class="imagelayer"/></g><g class="gridlayer"><g class="x"><path class="xgrid crisp" d="M0,60v330" transform="translate(147.70999999999998,0)" style="stroke: rgb(238, 238, 238); stroke-opacity: 1; stroke-width: 1px;"/><path class="xgrid crisp" d="M0,60v330" transform="translate(235.41,0)" style="stroke: rgb(238, 238, 238); stroke-opacity: 1; stroke-width: 1px;"/><path class="xgrid crisp" d="M0,60v330" transform="translate(323.12,0)" style="stroke: rgb(238, 238, 238); stroke-opacity: 1; stroke-width: 1px;"/><path class="xgrid crisp" d="M0,60v330" transform="translate(410.82,0)" style="stroke: rgb(238, 238, 238); stroke-opacity: 1; stroke-width: 1px;"/><path class="xgrid crisp" d="M0,60v330" transform="translate(498.53,0)" style="stroke: rgb(238, 238, 238); stroke-opacity: 1; stroke-width: 1px;"/><path class="xgrid crisp" d="M0,60v330" transform="translate(586.24,0)" style="stroke: rgb(238, 238, 238); stroke-opacity: 1; stroke-width: 1px;"/></g><g class="y"><path class="ygrid crisp" d="M60,0h580" transform="translate(0,309.46000000000004)" style="stroke: rgb(238, 238, 238); stroke-opacity: 1; stroke-width: 1px;"/><path class="ygrid crisp" d="M60,0h580" transform="translate(0,245.42)" style="stroke: rgb(238, 238, 238); stroke-opacity: 1; stroke-width: 1px;"/><path class="ygrid crisp" d="M60,0h580" transform="translate(0,181.39)" style="stroke: rgb(238, 238, 238); stroke-opacity: 1; stroke-width: 1px;"/><path class="ygrid crisp" d="M60,0h580" transform="translate(0,117.35)" style="stroke: rgb(238, 238, 238); stroke-opacity: 1; stroke-width: 1px;"/></g></g><g class="zerolinelayer"><path class="xzl zl crisp" d="M0,60v330" transform="translate(60,0)" style="stroke: rgb(68, 68, 68); stroke-opacity: 1; stroke-width: 1px;"/><path class="yzl zl crisp" d="M60,0h580" transform="translate(0,373.5)" style="stroke: rgb(68, 68, 68); stroke-opacity: 1; stroke-width: 1px;"/></g><path class="xlines-below"/><path class="ylines-below"/><g class="overlines-below"/><g class="xaxislayer-below"/><g class="yaxislayer-below"/><g class="overaxes-below"/><g class="plot" transform="translate(60, 60)" clip-path="url(#clip77c2b8xyplot)"><g class="scatterlayer mlayer"><g class="trace scatter tracefc7a05" style="stroke-miterlimit: 2; opacity: 1;"><g class="fills"/><g class="errorbars"/><g class="lines"><path class="js-line" d="M0,313.5L0.04,16.5L4.43,219.77L8.81,271.51L13.2,288.75L17.59,277.57L21.97,278.35L26.36,284.93L30.74,286.63L35.13,271.6L39.51,292.04L43.9,284.71L48.28,292.15L52.67,281.26L57.05,308.25L61.44,305.77L65.82,310.73L70.21,299.41L74.59,300.61L78.98,309.05L82.27,308.58L86.65,294.62L91.04,263.93L95.42,282.23L99.81,308.56L104.19,262.57L108.58,310.67L112.97,291.88L117.35,299.68L121.74,309.06L126.12,306.93L130.51,311.5L134.89,311.69L139.28,298.2L143.66,305.13L148.05,300.33L152.43,307L156.82,302.16L161.2,308.94L164.49,302.71L168.88,313.08L177.65,313.07L182.03,304.68L186.42,306.71L190.8,264.53L195.19,311.38L199.58,299.77L203.96,234.71L208.35,298.99L212.73,306.7L217.12,307.89L221.5,289.84L225.89,278.68L230.27,311.25L234.66,313.1L239.04,278.45L243.43,311.33L246.72,311.34L251.1,313.03L259.87,308.35L264.26,313.36L268.64,313.22L273.03,303.43L277.41,310.7L281.8,293.6L286.18,311.32L290.57,305.41L294.96,311.8L299.34,310.41L303.73,221.04L308.11,292.93L312.5,312.59L316.88,309.04L321.27,309.32L325.65,303.11L328.94,300.84L333.33,283.23L337.71,313.08L342.1,313.2L346.48,311.58L350.87,311.66L355.25,297.35L359.64,301.97L364.02,313.32L368.41,308.34L372.79,282.97L377.18,311.53L381.57,287.56L385.95,291.95L390.34,311.59L394.72,254.73L399.11,298.4L403.49,311.22L407.88,297.66L411.17,281.47L415.55,307.05L419.94,311.07L424.32,312.81L428.71,313.13L433.09,312.03L437.48,313.3L441.86,312.62L446.25,307.31L450.63,313.19L455.02,313.38L459.4,298.16L463.79,312.39L468.17,313.42L472.56,313.4L476.95,313.33L481.33,296.06L485.72,310.39L490.1,302.85L493.39,312.48L497.78,311.49L502.16,309.1L506.55,312.81L510.93,313.14L515.32,308.56L519.7,300.2L524.09,305.94L528.47,301.76L532.86,292.43L537.24,313.18L541.63,308.57L546.01,313.33L550.4,310.57L554.78,307.23L559.17,305.85L563.56,283.09L567.94,312.86L572.33,311.63L575.61,312.31L580,313.47" style="vector-effect: non-scaling-stroke; fill: none; stroke: rgb(31, 119, 180); stroke-opacity: 1; stroke-width: 2px; opacity: 1;"/></g><g class="points"/><g class="text"/></g></g></g><g class="overplot"/><path class="xlines-above crisp" d="M0,0" style="fill: none;"/><path class="ylines-above crisp" d="M0,0" style="fill: none;"/><g class="overlines-above"/><g class="xaxislayer-above"><g class="xtick"><text text-anchor="middle" x="0" y="403" transform="translate(60,0)" style="font-family: 'Open Sans', verdana, arial, sans-serif; font-size: 12px; fill: rgb(68, 68, 68); fill-opacity: 1; white-space: pre;">0</text></g><g class="xtick"><text text-anchor="middle" x="0" y="403" transform="translate(147.70999999999998,0)" style="font-family: 'Open Sans', verdana, arial, sans-serif; font-size: 12px; fill: rgb(68, 68, 68); fill-opacity: 1; white-space: pre;">2k</text></g><g class="xtick"><text text-anchor="middle" x="0" y="403" transform="translate(235.41,0)" style="font-family: 'Open Sans', verdana, arial, sans-serif; font-size: 12px; fill: rgb(68, 68, 68); fill-opacity: 1; white-space: pre;">4k</text></g><g class="xtick"><text text-anchor="middle" x="0" y="403" transform="translate(323.12,0)" style="font-family: 'Open Sans', verdana, arial, sans-serif; font-size: 12px; fill: rgb(68, 68, 68); fill-opacity: 1; white-space: pre;">6k</text></g><g class="xtick"><text text-anchor="middle" x="0" y="403" transform="translate(410.82,0)" style="font-family: 'Open Sans', verdana, arial, sans-serif; font-size: 12px; fill: rgb(68, 68, 68); fill-opacity: 1; white-space: pre;">8k</text></g><g class="xtick"><text text-anchor="middle" x="0" y="403" transform="translate(498.53,0)" style="font-family: 'Open Sans', verdana, arial, sans-serif; font-size: 12px; fill: rgb(68, 68, 68); fill-opacity: 1; white-space: pre;">10k</text></g><g class="xtick"><text text-anchor="middle" x="0" y="403" transform="translate(586.24,0)" style="font-family: 'Open Sans', verdana, arial, sans-serif; font-size: 12px; fill: rgb(68, 68, 68); fill-opacity: 1; white-space: pre;">12k</text></g></g><g class="yaxislayer-above"><g class="ytick"><text text-anchor="end" x="59" y="4.199999999999999" transform="translate(0,373.5)" style="font-family: 'Open Sans', verdana, arial, sans-serif; font-size: 12px; fill: rgb(68, 68, 68); fill-opacity: 1; white-space: pre;">0</text></g><g class="ytick"><text text-anchor="end" x="59" y="4.199999999999999" transform="translate(0,309.46000000000004)" style="font-family: 'Open Sans', verdana, arial, sans-serif; font-size: 12px; fill: rgb(68, 68, 68); fill-opacity: 1; white-space: pre;">0.5</text></g><g class="ytick"><text text-anchor="end" x="59" y="4.199999999999999" transform="translate(0,245.42)" style="font-family: 'Open Sans', verdana, arial, sans-serif; font-size: 12px; fill: rgb(68, 68, 68); fill-opacity: 1; white-space: pre;">1</text></g><g class="ytick"><text text-anchor="end" x="59" y="4.199999999999999" transform="translate(0,181.39)" style="font-family: 'Open Sans', verdana, arial, sans-serif; font-size: 12px; fill: rgb(68, 68, 68); fill-opacity: 1; white-space: pre;">1.5</text></g><g class="ytick"><text text-anchor="end" x="59" y="4.199999999999999" transform="translate(0,117.35)" style="font-family: 'Open Sans', verdana, arial, sans-serif; font-size: 12px; fill: rgb(68, 68, 68); fill-opacity: 1; white-space: pre;">2</text></g></g><g class="overaxes-above"/></g></g><g class="polarlayer"/><g class="ternarylayer"/><g class="geolayer"/><g class="pielayer"/><g class="glimages"/><defs id="topdefs-77c2b8"><g class="clips"/></defs><g class="layer-above"><g class="imagelayer"/><g class="shapelayer"/></g><g class="infolayer"><g class="g-gtitle"><text class="gtitle" x="350" y="30" text-anchor="middle" style="font-family: 'Open Sans', verdana, arial, sans-serif; font-size: 17px; fill: rgb(68, 68, 68); opacity: 1; font-weight: normal; white-space: pre;">train loss</text></g><g class="g-xtitle"/><g class="g-ytitle"/></g></svg>